<svg width="1094" height="660" viewBox="0 0 1094 660" fill="none" xmlns="http://www.w3.org/2000/svg">
<g clip-path="url(#clip0_402_296)">
<path d="M404.89 335.72L429.05 200.92C386.5 164.79 332.21 142.07 272.69 139.34C305.3 157.08 328.21 177.1 340.76 198.92C341.21 199.7 346.31 209.53 346.31 209.53C358.59 235.16 363.99 263.59 361.53 289.17L360.13 299.26C355.91 321.97 345.23 339.85 329.1 351.07C311.28 363.46 287.91 367.22 259.66 362.33C259.56 375.6 258.73 389.35 257 403.61L246.46 414.13C248 401.39 250.36 377.45 250.57 365.53C236.35 372.81 206.96 385.79 177.95 385.79C166.71 385.79 155.54 383.84 145.32 378.86C142.08 377.28 138.91 375.39 135.86 373.24L128.52 367.29C113.48 353.4 104.78 333.15 103.18 308.18H103.1L102.8 299.07H102.9C103.01 275.66 109.08 249.91 120.6 224.01L122.96 218.85C131.03 201.63 134.74 185.45 135.8 170.83C54.9398 215.04 0.0898438 300.88 0.0898438 399.53C0.0898438 438.58 8.69985 475.61 24.0999 508.86C25.0199 506.2 27.5198 504.27 30.4998 504.27C43.6398 504.27 50.3698 511.81 55.7698 517.87C60.9298 523.65 64.1699 526.92 70.8899 526.92C77.6099 526.92 80.8598 523.65 86.0198 517.87C91.4198 511.81 98.1498 504.27 111.29 504.27C124.43 504.27 131.16 511.81 136.56 517.87C141.72 523.65 144.96 526.92 151.69 526.92C158.42 526.92 161.67 523.65 166.82 517.87C172.22 511.81 178.94 504.27 192.09 504.27C205.24 504.27 211.96 511.81 217.36 517.87C222.51 523.65 225.76 526.92 232.48 526.92C239.2 526.92 242.46 523.65 247.61 517.87C253.01 511.81 259.74 504.27 272.88 504.27C286.02 504.27 292.75 511.81 298.16 517.87C303.32 523.65 306.56 526.92 313.29 526.92C320.02 526.92 323.27 523.65 328.43 517.87C333.83 511.81 340.56 504.27 353.71 504.27C366.86 504.27 373.58 511.81 378.99 517.87C384.15 523.65 387.39 526.92 394.13 526.92C397.88 526.92 400.92 529.96 400.92 533.71C400.92 537.46 397.88 540.5 394.13 540.5C380.98 540.5 374.26 532.96 368.85 526.9C363.69 521.12 360.45 517.85 353.71 517.85C346.97 517.85 343.73 521.12 338.57 526.9C333.17 532.96 326.44 540.5 313.29 540.5C300.14 540.5 293.42 532.96 288.02 526.9C282.86 521.12 279.62 517.85 272.88 517.85C266.14 517.85 262.9 521.12 257.75 526.9C252.35 532.96 245.62 540.5 232.48 540.5C219.34 540.5 212.61 532.96 207.21 526.9C202.05 521.12 198.81 517.85 192.09 517.85C185.37 517.85 182.12 521.12 176.96 526.9C171.56 532.96 164.83 540.5 151.69 540.5C138.55 540.5 131.82 532.96 126.42 526.9C121.26 521.12 118.02 517.85 111.29 517.85C104.56 517.85 101.32 521.12 96.1599 526.9C90.7599 532.96 84.0299 540.5 70.8899 540.5C57.7499 540.5 51.0198 532.96 45.6198 526.9C40.4598 521.12 37.2198 517.85 30.4998 517.85C29.7098 517.85 28.9698 517.69 28.2698 517.44C43.1198 546.64 63.3298 572.66 87.5798 594.23C92.3898 589.5 98.6598 585.17 108.62 585.17C121.76 585.17 128.49 592.71 133.89 598.77C139.04 604.55 142.29 607.82 149.01 607.82C155.73 607.82 158.99 604.55 164.14 598.77C169.54 592.71 176.27 585.17 189.41 585.17C202.55 585.17 209.28 592.71 214.68 598.77C219.84 604.55 223.08 607.82 229.82 607.82C236.56 607.82 239.8 604.55 244.96 598.77C250.36 592.71 257.09 585.17 270.24 585.17C283.39 585.17 290.11 592.71 295.52 598.77C300.68 604.55 303.92 607.82 310.66 607.82C314.41 607.82 317.45 610.86 317.45 614.61C317.45 618.36 314.41 621.4 310.66 621.4C297.51 621.4 290.79 613.86 285.39 607.81C280.23 602.03 276.99 598.76 270.25 598.76C263.51 598.76 260.27 602.03 255.11 607.81C249.71 613.87 242.98 621.41 229.83 621.41C216.68 621.41 209.96 613.87 204.55 607.81C199.39 602.03 196.15 598.76 189.42 598.76C182.69 598.76 179.44 602.03 174.29 607.81C168.89 613.87 162.16 621.41 149.02 621.41C135.88 621.41 129.15 613.87 123.75 607.81C118.59 602.03 115.35 598.76 108.63 598.76C104.07 598.76 101.1 600.3 98.0598 603.07C142.61 638.69 199.11 660 260.58 660C337.92 660 407.38 626.28 455.09 572.75C454.09 571.7 453.15 570.65 452.25 569.64C447.09 563.86 443.85 560.59 437.11 560.59C430.37 560.59 427.13 563.86 421.97 569.64C416.57 575.7 409.84 583.24 396.69 583.24C383.54 583.24 376.82 575.7 371.41 569.64C366.25 563.86 363.01 560.59 356.28 560.59C349.55 560.59 346.3 563.86 341.14 569.64C335.74 575.7 329.01 583.24 315.87 583.24C302.73 583.24 296 575.7 290.6 569.64C285.44 563.86 282.2 560.59 275.48 560.59C268.76 560.59 265.51 563.86 260.35 569.64C254.95 575.7 248.22 583.24 235.08 583.24C221.94 583.24 215.21 575.7 209.81 569.64C204.65 563.86 201.41 560.59 194.68 560.59C187.95 560.59 184.71 563.86 179.55 569.64C174.15 575.7 167.43 583.24 154.28 583.24C141.13 583.24 134.41 575.7 129.01 569.64C123.85 563.86 120.61 560.59 113.89 560.59C110.14 560.59 107.1 557.55 107.1 553.8C107.1 550.05 110.14 547.01 113.89 547.01C127.03 547.01 133.75 554.55 139.16 560.61C144.32 566.39 147.56 569.66 154.29 569.66C161.02 569.66 164.26 566.39 169.42 560.61C174.82 554.55 181.54 547.01 194.69 547.01C207.84 547.01 214.56 554.55 219.96 560.61C225.12 566.39 228.36 569.66 235.09 569.66C241.82 569.66 245.06 566.39 250.22 560.61C255.62 554.55 262.35 547.01 275.49 547.01C288.63 547.01 295.36 554.55 300.76 560.61C305.91 566.39 309.16 569.66 315.88 569.66C322.6 569.66 325.86 566.39 331.01 560.61C336.42 554.55 343.14 547.01 356.29 547.01C369.44 547.01 376.16 554.55 381.56 560.61C386.72 566.39 389.96 569.66 396.7 569.66C403.44 569.66 406.68 566.39 411.84 560.61C417.24 554.55 423.97 547.02 437.11 547.02C450.25 547.02 456.98 554.56 462.39 560.62C462.93 561.22 463.43 561.78 463.93 562.32C499.67 517.73 521.06 461.14 521.06 399.55C521.06 377.54 518.32 356.17 513.18 335.75H404.93L404.89 335.72Z" fill="#00918D"/>
<path d="M213.09 189.07L232.34 130.27C196.46 115.53 160.27 106.19 138.94 101.39C142.25 104.15 193.3 155.79 213.09 189.06V189.07Z" fill="#95CE4A"/>
<path d="M229.71 245.21C219.16 199.66 148.92 121.98 134.56 109.73C143.94 131.95 153.4 171.31 133.18 218.13L229.71 245.22V245.21Z" fill="#C4E077"/>
<path d="M111.94 299.75L246.54 309.69C243.53 290.21 238.98 272.18 233.4 255.65L129.4 226.48C117.92 251.89 111.92 277.05 111.94 299.75Z" fill="#95CE4A"/>
<path d="M259.65 353.16C318.6 364.45 345.81 320.61 350.13 302.74L258.81 334.65C258.97 336.89 259.63 352.04 259.65 353.15V353.16Z" fill="#C4E077"/>
<path d="M338.99 215.18L251.07 282.99C251.21 283.62 257.29 315.98 258.05 325.34L352.06 292.48C355.34 268.04 350.63 240.32 338.99 215.18Z" fill="#95CE4A"/>
<path d="M136.17 362.03L203.53 315.6L112.28 308.85C114 331.7 122.18 349.93 136.17 362.03Z" fill="#C4E077"/>
<path d="M269.44 147.85L287.35 243.56L334.84 206.91C334.21 205.73 308.47 165.24 269.43 147.84L269.44 147.85Z" fill="#C4E077"/>
<path d="M279.29 249.79L259.2 142.48C253.33 139.51 247.13 136.61 240.72 133.83L219.16 199.67C234.8 223.82 248.49 272.71 248.67 273.39L279.29 249.79Z" fill="#359546"/>
<path d="M250.43 355.33C250.2 342.69 249.3 330.53 247.83 318.89L217.96 316.67L143.88 367.72C169.6 387.87 237.33 362.42 250.44 355.33H250.43Z" fill="#359546"/>
<path d="M363.2 413.94C363.1 411.14 363.01 408.37 362.92 405.59H364.15V375.93H268.52L239.33 418.73H124.02L135.11 444.4C133.92 450.67 133.29 457.07 133.29 463.47C133.29 486.81 141.16 508.08 154.61 525.08C150.86 537.01 148.82 549.7 148.82 562.86V567.39H174.19V562.86C174.19 556.79 174.73 550.84 175.76 545.07C192.11 556.61 212.24 563.8 234.5 564.91C238.71 565.12 242.83 565.22 246.84 565.22C285.36 565.22 314.98 555.6 335 536.54C354.09 518.38 364.18 491.35 364.18 458.38C364.18 442.13 363.68 427.79 363.2 413.93V413.94Z" fill="#897367"/>
<path d="M353.85 405.59H284.63L255.03 448.38H143.57C142.75 453.35 142.34 458.41 142.34 463.47C142.34 513.51 182.15 553.23 234.94 555.85C276.93 557.94 308.5 549.24 328.75 529.97C346.25 513.32 355.12 489.24 355.12 458.38C355.12 442.29 354.62 428.03 354.14 414.24C354.04 411.34 353.94 408.46 353.84 405.58L353.85 405.59Z" fill="#CEB9AB"/>
<path d="M355.09 395.53V383.99H273.3L244.12 426.79H137.8L142.78 438.33H250.28L279.88 395.53H355.09Z" fill="#CEB9AB"/>
<path d="M157.96 558.33H165.22C167.3 507.13 204.57 464.85 253.43 455.03V447.62C200.54 457.56 160.07 503.11 157.96 558.33Z" fill="#CEB9AB"/>
<path d="M264.25 433.25H311.63C315.53 433.25 318.69 436.41 318.69 440.31V460.83C318.69 464.73 315.53 467.89 311.63 467.89H264.25C260.35 467.89 257.19 464.73 257.19 460.83V440.31C257.19 436.41 260.35 433.25 264.25 433.25Z" fill="#CEB9AB"/>
<path d="M311.63 424.19H264.25C255.64 424.19 248.61 430.98 248.17 439.48C191.43 451.87 148.81 502.46 148.81 562.86V567.39H174.18V562.86C174.18 516.31 205.87 477.04 248.8 465.43C250.79 472.08 256.95 476.95 264.24 476.95H311.62C320.51 476.95 327.74 469.72 327.74 460.83V440.31C327.74 431.42 320.51 424.19 311.62 424.19H311.63ZM165.22 558.33H157.96C160 504.97 197.86 460.65 248.13 448.76V456.25C201.9 467.97 167.23 509 165.22 558.33ZM318.7 460.83C318.7 464.72 315.53 467.89 311.64 467.89H264.26C260.37 467.89 257.2 464.72 257.2 460.83V440.31C257.2 436.42 260.37 433.25 264.26 433.25H311.64C315.53 433.25 318.7 436.42 318.7 440.31V460.83Z" fill="#897367"/>
<path d="M532.16 5.63988L506.18 141.39H482.82L504.77 25.5799H467.71L460.66 62.4399C453.81 97.6899 445.56 119.04 432.26 131.32C425.21 138.17 414.74 143.2 400.84 143.4L398.62 123.86C406.68 122.85 412.92 119.63 417.75 114.59C427.02 105.13 433.46 87.5999 438.09 64.0399L448.97 5.62988H532.15L532.16 5.63988Z" fill="#009349"/>
<path d="M533.76 141.39L552.49 43.3H575.85L557.12 141.39H533.75H533.76ZM568 28.2C560.75 28.2 555.31 22.76 555.51 14.91C555.51 6.25 562.36 0 570.42 0C578.48 0 583.51 5.43999 583.51 13.29C583.51 22.56 576.66 28.2 568.2 28.2H568Z" fill="#009349"/>
<path d="M654 137.97C648.16 140.79 638.29 143.61 625.8 143.61C601.23 143.61 586.12 127.7 586.12 104.34C586.12 70.1001 612.1 41.1001 648.36 41.1001C657.02 41.1001 664.67 43.3101 668.5 44.9301L662.46 63.2601C658.83 61.6501 654.2 60.2401 647.76 60.2401C625 60.2401 610.7 81.1901 610.7 101.53C610.7 116.23 619.16 124.49 632.25 124.49C641.31 124.49 648.16 122.07 653 119.86L654.01 137.99L654 137.97Z" fill="#009349"/>
<path d="M710.99 143.6C686.22 143.6 670.91 126.48 670.91 103.12C670.91 69.8901 694.07 41.0901 727.71 41.0901C754.09 41.0901 767.79 60.0201 767.79 81.7701C767.79 115 744.63 143.6 711.19 143.6H710.99ZM714.41 125.47C731.73 125.47 743.41 101.3 743.41 81.7601C743.41 71.6901 738.98 59.2001 724.68 59.2001C706.15 59.2001 695.07 84.1801 695.27 102.5C695.27 115.99 702.32 125.46 714.2 125.46H714.4L714.41 125.47Z" fill="#009349"/>
<path d="M836.46 41.0901C855.19 41.0901 868.28 48.5401 868.28 64.4501C868.28 77.7401 855.39 85.6001 845.32 88.4201V89.0301C855.19 90.2401 865.66 96.8801 865.66 109.98C865.66 134.75 838.07 143.61 817.32 143.61C794.56 143.61 781.27 134.55 781.27 114C781.27 96.0801 789.33 63.0401 806.85 50.1501C814.91 44.3101 824.37 41.0901 836.26 41.0901H836.46ZM824.38 97.8901C817.33 97.8901 810.48 99.5001 806.25 100.91C805.65 104.13 804.84 108.56 804.84 112.59C804.84 121.45 809.27 126.89 820.15 126.89C832.24 126.89 841.9 120.65 841.9 110.78C841.9 100.91 833.84 97.8901 824.58 97.8901H824.38ZM833.65 57.4101C818.95 57.4101 812.7 72.7201 809.28 85.4001C818.55 83.9901 829.02 82.5801 836.47 78.7501C841.51 76.1301 845.74 72.3001 845.74 67.0701C845.74 60.8301 840.71 57.4001 833.86 57.4001H833.66L833.65 57.4101Z" fill="#009349"/>
<path d="M945.01 141.39C945.01 135.55 945.82 127.69 946.62 119.23H946.22C936.35 137.36 923.26 143.6 910.77 143.6C893.25 143.6 881.77 129.9 881.77 110.17C881.77 76.7401 905.13 41.0901 950.85 41.0901C961.53 41.0901 973.01 43.1001 980.46 45.5201L970.59 96.6801C967.77 111.38 966.16 129.71 966.56 141.39H945.01ZM954.07 60.2201C951.86 59.6101 948.83 59.2101 944.6 59.2101C923.05 59.2101 906.13 83.5801 906.13 105.94C906.13 116.21 909.96 124.67 920.23 124.67C931.31 124.67 944.6 110.97 949.23 86.0001L954.06 60.2201H954.07Z" fill="#009349"/>
<path d="M563.88 172.18L538.1 307.93H514.54L536.7 192.12H484.54L462.38 307.93H439.02L464.8 172.18H563.89H563.88Z" fill="#009349"/>
<path d="M607.77 310.14C583 310.14 567.69 293.02 567.69 269.66C567.69 236.43 590.85 207.63 624.49 207.63C650.87 207.63 664.57 226.56 664.57 248.31C664.57 281.54 641.41 310.14 607.97 310.14H607.77ZM611.19 292.01C628.51 292.01 640.19 267.84 640.19 248.3C640.19 238.23 635.76 225.74 621.46 225.74C602.93 225.74 591.85 250.72 592.05 269.04C592.05 282.53 599.1 292 610.98 292H611.18L611.19 292.01Z" fill="#009349"/>
<path d="M774.13 209.84L755.6 307.93H732.24L747.35 228.17H720.36L716.13 249.72C711.09 275.3 704.45 291.41 692.57 300.07C685.92 305.91 678.67 309.13 666.79 309.13L665.18 290.6C670.42 290 675.25 288.39 678.27 285.36C686.13 279.32 691.16 266.43 694.38 249.51L702.03 209.83H774.14L774.13 209.84Z" fill="#009349"/>
<path d="M857.51 307.93H834.55L842 269.06H834.14C822.26 269.06 815.41 275.3 809.57 286.98C805.94 294.23 802.72 301.28 798.49 307.93H773.52C779.16 299.47 782.58 291.21 787.22 282.15C793.06 271.68 800.51 264.02 811.59 261.81V261.41C802.33 259.4 791.45 251.74 791.45 239.46C791.45 212.27 822.27 208.24 843.61 208.24C855.29 208.24 867.38 209.25 876.04 210.46L857.51 307.94V307.93ZM850.26 225.35C847.04 224.75 844.02 224.34 838.58 224.34C826.7 224.34 815.62 227.97 815.62 239.85C815.62 249.52 826.7 253.55 835.96 253.55H844.82L850.26 225.35Z" fill="#009349"/>
<path d="M925.78 209.84L918.73 247.5H954.98L962.23 209.84H985.59L967.06 307.93H943.5L951.56 265.84H915.31L907.25 307.93H883.89L902.42 209.84H925.78Z" fill="#009349"/>
<path d="M1058.5 307.93C1058.5 302.09 1059.31 294.23 1060.11 285.77H1059.71C1049.84 303.9 1036.75 310.14 1024.26 310.14C1006.74 310.14 995.26 296.44 995.26 276.71C995.26 243.28 1018.62 207.63 1064.34 207.63C1075.02 207.63 1086.5 209.64 1093.95 212.06L1084.08 263.22C1081.26 277.92 1079.65 296.25 1080.05 307.93H1058.5ZM1067.56 226.76C1065.35 226.15 1062.32 225.75 1058.09 225.75C1036.54 225.75 1019.62 250.12 1019.62 272.48C1019.62 282.75 1023.45 291.21 1033.72 291.21C1044.8 291.21 1058.09 277.51 1062.72 252.54L1067.55 226.76H1067.56Z" fill="#009349"/>
</g>
<defs>
<clipPath id="clip0_402_296">
<rect width="1094" height="660" fill="white"/>
</clipPath>
</defs>
</svg>
